<svg width="28" height="28" viewBox="0 0 28 28" fill="none" xmlns="http://www.w3.org/2000/svg">
<circle cx="14" cy="14" r="14" fill="white"/>
<path d="M17.0072 22.2069H16.2136L15.2458 21.6245L13.5423 21.9625L12.6152 22.1441L13.5423 21.6214L14.3374 21.4522L13.0487 19.8499C12.7775 19.7938 12.5099 19.7212 12.2475 19.6323C11.6524 19.4345 11.024 19.0233 10.4629 18.91C8.94148 18.6031 8.15629 18.91 8.15629 18.91L2.71509 21.2141L5.96084 17.6344C5.96084 17.6344 7.01279 14.3329 9.6853 11.9373C12.3578 9.54177 16.651 8.05229 16.651 8.05229C16.651 8.05229 18.4706 6.01931 20.2956 6.10103C22.1205 6.18275 22.8641 8.30741 22.8641 8.30741C22.8641 8.30741 24.1568 8.60896 24.6708 8.78045C25.1848 8.95193 24.8183 9.12723 24.8183 9.12723C24.8183 9.12723 24.8598 9.16402 24.3744 9.22107C23.889 9.27811 22.9787 9.22107 22.9787 9.22107C22.7369 9.41817 22.5266 9.65113 22.355 9.91188C22.0914 10.324 21.9242 10.8696 21.9242 10.8696C21.9242 10.8696 21.8941 13.4444 21.2808 14.9271C20.6674 16.4097 18.8909 18.7009 16.1239 19.6325C15.3525 19.854 14.7117 19.9485 14.1447 19.9541L16.1354 21.5199L17.2656 21.8291H17.9298L18.8909 22.2067L17.0072 22.2069Z" fill="#1C5E5E"/>
<path d="M19.0169 14.7863C19.0169 14.7863 17.6658 13.9586 17.5394 12.7624C17.4129 11.5663 19.0182 10.5302 18.511 10.0016C17.912 9.37729 19.3717 8.92054 19.3717 8.92054C19.3717 8.92054 20.4857 8.85983 21.2529 8.92054C22.0202 8.98125 22.4409 9.16339 22.4409 9.16339C22.2139 9.37515 22.013 9.61344 21.8425 9.87315C21.5827 10.2793 21.4507 10.7937 21.4507 10.7937C21.4507 10.7937 21.3639 13.7867 20.7677 14.7863C20.1715 15.7859 19.0169 14.7863 19.0169 14.7863Z" fill="white"/>
</svg>
