<svg width="309" height="260" viewBox="0 0 309 260" fill="none" xmlns="http://www.w3.org/2000/svg">
<path d="M207.602 260.001V248.653L197.568 234.996L186.834 228.193L183.989 219.646L176.455 211.557L123.302 219.646L-26.9565 243.552V250C-26.9565 255.523 -22.4794 260 -16.9566 260L207.602 260.001Z" fill="#3D3D3D"/>
<path d="M2.19653 207.941L46.989 158.694C46.989 158.694 61.5074 113.276 98.3926 80.3213C135.278 47.3664 194.529 26.876 194.529 26.876C194.529 26.876 219.642 -1.09186 244.83 0.0330466C270.017 1.15796 280.278 30.3856 280.278 30.3856C280.278 30.3856 298.12 34.534 305.214 36.8923C312.309 39.2507 307.25 41.663 307.25 41.663C307.25 41.663 307.823 42.1691 301.124 42.9545C294.425 43.74 281.861 42.9545 281.861 42.9545C278.524 45.6659 275.621 48.8707 273.253 52.4578C269.614 58.1273 267.307 65.6332 267.307 65.6332C267.307 65.6332 266.892 101.054 258.426 121.45C249.96 141.846 211.257 179.308 187.254 186.18C163.25 193.053 148.409 191.037 133.754 186.18C125.54 183.458 116.868 177.801 109.123 176.244C88.1261 172.022 77.2887 176.244 77.2887 176.244L2.19653 207.941Z" fill="#252422"/>
<path d="M194.532 47.488C186.144 38.7764 194.532 26.8774 194.532 26.8774C194.532 26.8774 219.645 -1.09049 244.832 0.0344199C270.02 1.15933 280.281 30.3869 280.281 30.3869L272.65 40.2387C272.65 40.2387 261.13 40.9654 242.627 42.9587C235.856 86.1021 198.475 51.5832 194.532 47.488Z" fill="#635142"/>
<path d="M230.944 65.4831C228.559 57.8895 218.841 58.7676 202.505 61.5249C186.169 64.2822 180.506 67.0561 165.6 76.5124C150.693 85.9687 154.569 90.2395 142.881 99.3597C131.192 108.48 125.311 106.624 114.119 112.911C102.926 119.198 95.4687 130.749 95.4687 130.749L63.8064 158.466L149.978 139.93C149.978 139.93 176.5 134.149 192.016 122.141C207.533 110.134 204.934 105.253 212.043 91.8988C219.153 78.5444 233.329 73.0775 230.944 65.4831Z" fill="#4B5864"/>
<path d="M233.778 115.92C233.778 115.92 216.254 105.174 214.615 89.6426C212.976 74.1115 233.797 60.6595 227.218 53.7955C219.45 45.6931 238.382 39.7602 238.382 39.7602C238.382 39.7602 252.83 38.9719 262.782 39.7602C272.734 40.5486 278.191 42.9112 278.191 42.9112C275.246 45.6606 272.64 48.7543 270.43 52.1262C267.06 57.3992 265.347 64.0786 265.347 64.0786C265.347 64.0786 264.221 102.939 256.488 115.918C248.755 128.897 233.778 115.92 233.778 115.92Z" fill="#FAFAFA"/>
<path d="M244.316 24.6644C245.719 22.2524 249.643 22.9143 251.595 24.1811C252.533 24.7893 253.19 25.7446 253.422 26.8367C253.654 27.9289 253.442 29.0685 252.834 30.0048C252.16 30.9434 251.153 31.5897 250.019 31.8115C248.884 32.0333 247.708 31.8139 246.73 31.1982C244.779 29.9317 242.91 27.0744 244.316 24.6644Z" fill="#27150C"/>
<path d="M249.297 29.3948C250.227 29.3948 250.982 28.641 250.982 27.7112C250.982 26.7814 250.227 26.0276 249.297 26.0276C248.366 26.0276 247.612 26.7814 247.612 27.7112C247.612 28.641 248.366 29.3948 249.297 29.3948Z" fill="#0B0502"/>
<path d="M143.8 187.923L165.354 214.636L173.704 213.79L154.78 187.923H143.8Z" fill="#4E3E35"/>
<path d="M132.064 177.093L145.177 181.208L184.65 212.153L197.545 221.602L199.994 227.389V231.766L205.837 244.202L204.479 250.34C204.479 250.34 204.456 245.402 202.966 242.227C201.707 239.545 198.991 238.647 197.544 235.975C194.627 230.589 192.809 228.795 192.809 228.795L193.823 225.219L171.753 213.223L132.064 177.093Z" fill="#89858B"/>
<path d="M173.317 208.948L151.627 211.139L139.615 218.599L151.624 215.817L175.338 213.547L173.317 208.948Z" fill="#89858B"/>
<path d="M101.696 259.998L99.8577 252.825H82.7463V241.081H69.6493L66.8812 238.026H79.8916L86.2376 235.631L109.442 232.806L113.149 228.746H125.231L129.436 224.131L154.612 221.54L152.216 216.216H132.354L120.267 221.54H99.8522L89.4023 228.746H69.6445V232.806L52.524 228.747L32.8285 232.808H15.0506L8.36478 238.027H-5.40687L-18.4021 241.082H-27V249.998C-27 255.521 -22.5228 259.998 -17 259.998H101.696Z" fill="#84B026"/>
</svg>
